<svg xmlns="http://www.w3.org/2000/svg" version="1.0" preserveAspectRatio="xMidYMid meet" viewBox="130.9 175.71 773.6 693.1">

<g transform="translate(0.000000,1024.000000) scale(0.100000,-0.100000)" fill="#000000" stroke="none">
<path d="M5040 8479 c-843 -36 -1692 -468 -2224 -1134 -152 -191 -240 -325 -345 -528 -200 -389 -305 -753 -342 -1192 -14 -164 -7 -547 11 -618 25 -97 122 -130 194 -66 44 38 55 76 45 154 -22 174 -5 610 31 810 93 511 348 1023 704 1414 345 379 822 677 1305 816 270 77 490 108 771 109 219 0 331 -11 530 -51 242 -48 423 -112 670 -234 255 -127 457 -266 673 -463 276 -252 509 -576 606 -843 39 -106 96 -142 173 -107 44 20 78 73 78 123 0 39 -28 110 -97 246 -147 290 -386 588 -659 821 -69 59 -121 111 -117 115 4 4 76 18 158 30 263 38 460 16 643 -72 158 -76 279 -225 312 -386 19 -88 7 -287 -23 -398 -82 -306 -271 -629 -522 -893 l-60 -63 -60 58 c-33 33 -81 68 -106 78 l-47 19 -6 71 c-21 223 -153 564 -313 805 -310 467 -788 777 -1378 895 -518 103 -1101 23 -1568 -217 -198 -102 -354 -217 -520 -385 -317 -320 -514 -707 -571 -1124 -7 -44 -8 -46 -64 -69 -68 -29 -139 -96 -172 -164 -32 -68 -42 -202 -38 -521 3 -222 7 -268 23 -318 l19 -57 -135 -138 c-430 -437 -648 -793 -705 -1152 -22 -138 -15 -380 14 -490 92 -345 310 -642 627 -852 547 -362 1223 -325 1631 90 150 153 221 295 212 428 -4 62 -3 65 16 59 42 -11 304 -54 416 -67 164 -18 581 -15 740 6 465 62 926 221 1270 440 58 37 79 40 39 6 -63 -54 -232 -172 -304 -212 -243 -137 -465 -229 -780 -322 -84 -25 -13 -18 132 13 325 70 583 174 897 361 65 39 120 69 122 67 4 -3 -87 -76 -166 -131 -246 -174 -615 -343 -965 -441 -66 -18 -115 -34 -108 -34 28 -2 297 52 394 79 265 73 529 190 782 345 142 87 113 58 -53 -54 -331 -223 -736 -406 -1092 -491 -54 -13 -96 -25 -94 -27 13 -13 485 74 580 107 88 30 80 17 -11 -18 -271 -104 -542 -165 -825 -187 -88 -7 -104 -1 -74 25 28 22 49 96 42 143 -8 53 -63 123 -113 143 -168 71 -321 -128 -217 -281 l25 -37 -78 6 c-43 4 -101 9 -129 12 -95 11 -154 -36 -154 -123 0 -81 43 -107 201 -122 476 -45 985 31 1459 216 1014 397 1699 1271 1872 2388 25 162 37 543 19 598 -33 99 -158 118 -210 33 -16 -27 -20 -62 -26 -246 -11 -373 -71 -671 -199 -1002 -37 -94 -98 -231 -111 -246 -1 -1 -40 21 -87 50 -46 29 -125 73 -175 97 -85 41 -92 47 -98 80 -14 77 -87 183 -149 218 -14 8 -15 32 -4 225 l12 216 53 5 c125 13 266 116 325 235 l33 66 3 275 3 275 117 121 c365 376 607 805 677 1198 23 130 17 329 -14 435 -93 321 -354 531 -741 598 -75 13 -137 15 -290 11 -198 -5 -331 -26 -537 -84 l-61 -17 -41 27 c-55 37 -276 147 -383 191 -287 119 -560 188 -848 215 -158 15 -268 17 -450 10z m485 -694 c486 -88 880 -307 1171 -650 86 -102 115 -146 68 -104 -49 43 -94 73 -209 139 -281 162 -605 272 -955 325 -692 103 -1474 -71 -1989 -443 -36 -27 -73 -52 -81 -57 -30 -18 151 193 237 276 200 194 434 334 706 424 141 46 339 90 477 105 126 13 468 4 575 -15z m-38 -500 c205 -25 414 -75 593 -142 111 -41 381 -178 475 -240 277 -183 477 -399 558 -601 31 -75 31 -81 35 -273 14 -756 -113 -1153 -468 -1454 -236 -200 -527 -346 -856 -429 -78 -20 -311 -66 -332 -66 -2 0 -1 -46 3 -102 7 -113 -1 -148 -51 -207 l-26 -31 -242 0 -242 0 -31 33 c-49 52 -57 74 -55 167 1 47 4 97 7 111 6 25 5 26 -97 43 -608 107 -1110 385 -1343 746 -107 164 -182 370 -214 589 -26 171 -39 665 -20 766 60 323 499 714 1044 930 176 70 426 132 635 159 147 19 478 19 627 1z m-2477 -1696 l0 -370 -22 7 c-32 9 -54 30 -72 69 -13 27 -16 78 -16 294 0 285 4 309 55 349 57 45 55 55 55 -349z m4391 308 c18 -30 19 -48 17 -320 l-3 -289 -37 -34 c-71 -64 -68 -77 -68 329 0 200 3 366 6 370 12 11 65 -24 85 -56z m-4422 -941 c15 -8 57 -20 93 -27 l65 -12 13 -215 c12 -199 11 -215 -4 -224 -67 -38 -128 -123 -147 -206 -10 -42 -17 -52 -48 -67 -67 -31 -205 -119 -243 -153 l-38 -34 -24 54 c-14 30 -30 75 -36 99 -32 117 -61 149 -136 149 -47 0 -99 -50 -110 -106 -15 -80 62 -274 189 -479 59 -96 94 -125 149 -125 91 0 144 95 101 184 -16 34 -16 36 8 56 37 32 170 120 180 120 5 0 9 -7 9 -15 0 -38 59 -125 141 -210 l89 -92 -71 -114 c-102 -161 -169 -293 -169 -332 0 -42 18 -67 102 -146 147 -137 334 -268 560 -392 65 -35 118 -67 118 -71 0 -9 -91 -42 -169 -63 -488 -126 -1079 159 -1334 644 -148 279 -164 564 -49 856 63 162 187 355 367 572 103 125 335 363 354 363 6 0 25 -7 40 -14z m619 -630 c100 -76 219 -147 365 -216 170 -81 290 -123 495 -176 97 -25 178 -47 179 -48 1 -1 6 -29 12 -63 5 -35 17 -78 27 -98 26 -55 102 -133 158 -163 l51 -27 285 0 285 0 50 27 c61 32 130 104 156 163 10 24 22 70 25 104 5 43 11 62 23 65 9 3 66 17 126 31 419 98 772 275 1054 532 74 66 73 54 -1 -54 -153 -221 -497 -431 -923 -563 -123 -39 -122 -38 -145 -75 -30 -48 -26 -100 9 -136 39 -39 64 -38 225 11 361 109 700 288 941 498 95 82 115 97 115 85 0 -38 -176 -226 -310 -329 -226 -175 -537 -335 -855 -440 -88 -29 -153 -53 -144 -53 32 -2 296 69 429 114 290 99 549 249 820 474 l55 46 -33 -42 c-51 -65 -221 -222 -309 -285 -224 -162 -467 -276 -764 -363 -305 -89 -460 -109 -819 -109 -292 0 -381 8 -640 60 -473 95 -947 330 -1227 609 -85 84 -103 114 -103 167 l0 31 63 -61 c92 -89 257 -224 257 -209 0 2 -34 33 -77 68 -42 35 -114 106 -160 157 -87 99 -95 117 -70 175 l12 27 70 -71 c224 -228 568 -422 984 -553 63 -20 129 -36 148 -36 75 0 119 71 90 142 -18 44 -40 56 -195 109 -363 125 -615 263 -780 427 -65 65 -162 202 -162 229 0 4 30 -22 68 -59 37 -36 100 -91 140 -122z m3805 -382 c76 -39 177 -104 177 -115 0 -14 -102 -161 -191 -274 -80 -103 -149 -176 -149 -159 0 5 -33 66 -74 134 l-74 124 88 86 c67 66 95 102 121 157 19 40 38 72 42 72 4 1 31 -11 60 -25z m-3668 -613 c77 -37 199 -92 271 -121 l131 -52 11 -63 c24 -127 11 -172 -76 -266 l-64 -69 -167 86 c-91 47 -177 94 -191 105 -20 16 -14 15 27 -5 110 -54 350 -143 359 -133 3 3 -64 40 -148 84 -222 114 -437 254 -548 354 l-45 40 45 -29 c105 -69 348 -185 514 -247 98 -36 180 -64 183 -62 2 3 -15 12 -39 21 -101 40 -372 198 -488 284 -66 50 -172 144 -167 149 3 2 22 -8 43 -22 59 -40 320 -169 429 -213 147 -58 160 -59 59 -3 -161 87 -286 173 -411 280 -29 25 -53 48 -53 52 0 4 41 -17 92 -47 51 -30 155 -85 233 -123z"/>
<path d="M4870 7094 c-331 -45 -687 -170 -955 -334 -181 -111 -392 -297 -473 -420 -83 -123 -87 -145 -86 -405 3 -592 92 -882 349 -1140 194 -196 423 -327 745 -429 242 -77 460 -110 730 -110 551 -1 1084 189 1414 504 200 192 304 405 350 720 23 156 39 573 26 657 -20 124 -75 216 -214 356 -315 320 -801 542 -1326 607 -118 14 -434 11 -560 -6z m425 -217 l90 -12 52 -73 c73 -102 103 -199 103 -334 0 -185 -52 -311 -185 -443 -131 -131 -271 -190 -450 -189 -170 1 -307 48 -424 147 -190 161 -267 408 -192 622 39 109 55 125 177 172 122 46 270 86 384 102 41 6 86 13 100 15 56 8 261 4 345 -7z m-1150 -265 c-6 -4 -36 -25 -69 -47 -120 -80 -270 -241 -364 -390 -45 -73 -82 -158 -109 -255 l-24 -85 6 75 c23 284 190 518 479 672 66 35 103 49 81 30z m-224 -481 c52 -53 24 -131 -47 -131 -82 0 -103 108 -29 148 31 17 44 14 76 -17z m309 -197 c88 -53 73 -186 -26 -213 -99 -27 -182 71 -139 163 30 62 105 85 165 50z"/>
<path d="M5101 4078 c-60 -31 -83 -65 -89 -133 -6 -69 9 -106 61 -150 35 -30 48 -35 90 -35 135 0 219 140 154 254 -43 77 -138 105 -216 64z"/>
<path d="M5758 3393 c7 -3 16 -2 19 1 4 3 -2 6 -13 5 -11 0 -14 -3 -6 -6z"/>
<path d="M1604 5640 l-52 -107 -68 -2 c-38 -1 -93 -5 -122 -9 l-53 -7 95 -85 c62 -56 95 -92 95 -107 1 -12 -5 -50 -13 -85 -8 -35 -17 -80 -20 -100 l-7 -38 83 51 c46 27 90 55 99 61 13 9 36 -1 115 -49 54 -34 100 -59 102 -58 2 2 -6 47 -17 102 -12 54 -23 107 -25 118 -3 15 18 39 89 100 52 44 94 83 94 87 1 3 -43 9 -96 13 -54 3 -107 7 -118 8 -15 1 -33 29 -70 104 -27 56 -52 103 -55 106 -3 2 -28 -44 -56 -103z"/>
<path d="M8645 5648 c-28 -57 -54 -106 -60 -110 -5 -4 -33 -8 -61 -8 -28 0 -79 -3 -114 -7 l-63 -6 98 -91 97 -91 -21 -104 c-11 -57 -21 -110 -21 -118 0 -12 39 9 175 96 18 12 31 6 119 -49 54 -34 99 -60 101 -58 1 2 -8 56 -22 120 l-25 117 64 59 c35 32 79 72 98 89 l35 31 -122 7 -122 7 -53 110 -53 109 -50 -103z"/>
<path d="M5178 2170 c-9 -19 -32 -69 -52 -111 l-35 -76 -123 -8 -122 -7 54 -52 c30 -28 74 -68 98 -89 l42 -37 -25 -116 c-14 -63 -25 -117 -25 -119 0 -5 90 48 153 91 l49 32 46 -31 c63 -43 155 -98 157 -95 1 2 -11 56 -26 122 l-29 119 48 41 c26 22 69 62 96 87 l50 47 -118 7 -118 8 -53 111 -52 111 -15 -35z"/>
</g>
</svg>