<?xml version="1.0" encoding="utf-8"?><!-- Uploaded to: SVG Repo, www.svgrepo.com, Generator: SVG Repo Mixer Tools -->
<svg fill="#000000" width="800px" height="800px" viewBox="0 0 24 24" id="satellite" data-name="Flat Line" xmlns="http://www.w3.org/2000/svg" class="icon flat-line"><path id="secondary" d="M5.76,10.24h8a3,3,0,0,1,3,3v0a3,3,0,0,1-3,3h-8a1,1,0,0,1-1-1v-4A1,1,0,0,1,5.76,10.24Z" transform="translate(27.73 15) rotate(135)" style="fill: rgba(255, 255, 255,0); stroke-width: 2;"></path><path id="primary" d="M17,17l-2.73-2.73M7,7,9.67,9.67m11,9.62-1.42,1.42a1,1,0,0,1-1.41,0l-2.29-2.3,2.82-2.82,2.3,2.29A1,1,0,0,1,20.71,19.29Zm-16-16L3.29,4.71a1,1,0,0,0,0,1.41l2.3,2.29L8.41,5.59,6.12,3.29A1,1,0,0,0,4.71,3.29ZM15.15,8.85,18,6M10.76,17.49l5.65-5.66a1,1,0,0,0,0-1.42L13.59,7.59a1,1,0,0,0-1.42,0L6.51,13.24a3,3,0,0,0,0,4.25h0A3,3,0,0,0,10.76,17.49Z" style="fill: none; stroke: rgb(0, 0, 0); stroke-linecap: round; stroke-linejoin: round; stroke-width: 2;"></path><line id="primary-upstroke" x1="17.95" y1="6" x2="18.05" y2="6" style="fill: none; stroke: rgb(0, 0, 0); stroke-linecap: round; stroke-linejoin: round; stroke-width: 2.5;"></line></svg>