<svg xmlns="http://www.w3.org/2000/svg" version="1.0" preserveAspectRatio="xMidYMid meet" viewBox="704.36 200.11 508.14 687.72">

<g transform="translate(0.000000,1080.000000) scale(0.100000,-0.100000)" fill="#000000" stroke="none">
<path d="M7366 8791 c-13 -20 -36 -143 -42 -222 -24 -305 100 -628 333 -870 l83 -86 -44 -94 c-90 -193 -120 -337 -120 -574 -1 -234 36 -398 131 -593 l45 -92 -110 -108 c-134 -130 -193 -202 -290 -351 -303 -463 -385 -1004 -236 -1557 41 -156 143 -379 209 -459 19 -23 19 -34 -11 160 -12 76 -15 142 -11 275 9 276 52 439 187 715 101 205 295 503 444 680 27 33 51 62 53 64 1 2 53 -45 116 -105 162 -156 320 -294 572 -500 121 -98 286 -244 366 -324 163 -163 228 -252 348 -485 135 -261 180 -315 562 -680 176 -169 270 -316 320 -505 39 -146 31 -423 -17 -577 -11 -37 130 127 201 232 116 172 199 367 242 565 14 66 18 126 17 265 -1 219 -16 289 -119 525 -37 85 -91 212 -119 282 l-52 127 -50 -52 c-152 -157 -277 -365 -299 -495 -8 -51 -19 -53 -113 -16 -157 63 -232 155 -219 270 20 181 304 504 782 889 198 160 373 314 554 489 l104 100 29 -34 c71 -84 211 -274 280 -380 196 -300 294 -516 350 -765 20 -87 23 -129 23 -320 0 -169 -5 -242 -18 -314 -10 -51 -16 -95 -14 -97 8 -8 68 86 113 176 58 118 116 291 151 455 26 123 28 144 28 385 -1 228 -3 266 -23 358 -49 224 -158 483 -280 667 -70 105 -219 281 -321 378 -39 38 -71 71 -71 73 0 3 20 46 44 97 90 188 131 372 130 592 0 216 -31 355 -125 571 l-40 91 68 69 c103 105 168 197 233 329 112 229 144 468 93 697 -18 83 -34 99 -60 63 -196 -281 -509 -479 -927 -585 l-109 -28 -78 58 c-225 167 -483 271 -799 321 -123 20 -439 17 -560 -5 -324 -59 -560 -156 -797 -328 -29 -21 -58 -38 -66 -38 -28 0 -268 70 -349 102 -274 107 -514 277 -650 459 -50 68 -62 78 -72 60z m653 -784 c126 -73 287 -139 503 -207 439 -138 516 -169 643 -253 150 -98 250 -209 358 -395 l65 -113 32 63 c177 339 378 491 840 633 420 129 571 190 781 315 113 67 112 68 54 -57 -84 -180 -259 -341 -454 -418 -35 -13 -143 -48 -240 -76 -251 -73 -356 -129 -460 -246 -186 -208 -169 -496 37 -659 170 -134 433 -101 562 70 131 173 123 386 -20 549 l-41 46 43 11 c195 50 342 106 419 161 28 20 31 20 43 4 24 -33 68 -160 87 -250 24 -114 25 -306 3 -413 -83 -405 -421 -693 -813 -692 -168 0 -295 39 -416 125 l-75 54 -117 -158 c-65 -86 -149 -203 -188 -259 -38 -56 -72 -102 -75 -102 -3 0 -34 42 -69 93 -107 154 -305 416 -315 417 -4 0 -30 -16 -56 -35 -67 -49 -189 -104 -268 -121 -37 -7 -105 -14 -152 -14 -225 0 -401 69 -564 221 -280 261 -359 680 -204 1072 16 42 34 77 38 77 4 0 37 -17 71 -39 79 -47 223 -105 334 -133 l84 -21 -43 -56 c-60 -77 -84 -128 -98 -210 -27 -157 43 -319 179 -412 176 -121 420 -77 553 100 139 185 110 421 -75 606 -97 96 -216 156 -440 221 -184 52 -268 86 -367 145 -139 82 -288 251 -337 384 -28 76 -27 81 17 54 20 -12 84 -49 141 -82z m831 -916 c19 -10 48 -35 65 -55 41 -51 43 -133 5 -190 -64 -96 -215 -103 -284 -13 -65 85 -39 199 59 258 39 24 110 24 155 0z m1649 -11 c58 -42 81 -84 81 -146 0 -94 -71 -164 -167 -164 -103 0 -173 61 -181 156 -12 143 152 237 267 154z m-1201 -1356 c59 -41 68 -117 19 -170 -28 -31 -39 -36 -80 -36 -65 -1 -107 38 -114 106 -5 42 -3 48 30 81 29 29 42 35 79 35 24 0 54 -7 66 -16z m723 -12 c24 -21 32 -39 36 -74 5 -42 2 -49 -28 -82 -25 -26 -45 -37 -76 -42 -40 -6 -45 -4 -83 34 -34 34 -40 46 -40 82 0 34 6 48 34 76 29 29 41 34 80 34 36 0 52 -6 77 -28z m-1083 -228 c31 -21 52 -66 52 -110 0 -51 -53 -104 -104 -104 -49 0 -83 18 -107 57 -48 77 5 173 94 173 23 0 53 -7 65 -16z m713 -7 c48 -32 68 -96 46 -143 -22 -44 -62 -69 -113 -69 -99 0 -149 129 -76 197 48 45 92 49 143 15z m708 8 c30 -15 61 -69 61 -105 0 -99 -135 -146 -202 -70 -22 24 -28 40 -28 76 0 39 5 51 34 80 38 38 86 45 135 19z m-1057 -302 c84 -74 41 -203 -68 -203 -113 0 -156 151 -60 212 37 23 97 19 128 -9z m698 11 c38 -23 60 -64 60 -112 0 -32 -7 -47 -31 -71 -26 -26 -38 -31 -81 -31 -41 0 -54 5 -78 28 -94 95 16 253 130 186z m-349 -327 c43 -29 64 -86 49 -132 -16 -47 -43 -67 -100 -73 -46 -4 -52 -2 -85 31 -30 30 -35 42 -35 82 0 40 5 52 34 81 41 41 87 45 137 11z"/>
<path d="M9496 6668 l-87 -83 88 -162 89 -161 44 81 c24 45 63 117 88 160 l44 78 -48 52 c-54 57 -119 117 -126 117 -3 0 -45 -37 -92 -82z"/>
<path d="M7968 5027 c-157 -249 -239 -437 -286 -651 -23 -108 -26 -143 -26 -321 0 -180 3 -211 26 -310 47 -198 125 -368 236 -515 60 -78 231 -255 239 -247 2 3 -3 19 -12 36 -72 140 -117 344 -118 531 0 232 25 324 178 640 144 296 186 439 185 630 l0 55 -72 40 c-47 26 -107 74 -172 138 -55 53 -100 97 -100 97 -1 0 -36 -55 -78 -123z"/>
<path d="M11076 5094 c-65 -74 -165 -156 -233 -191 l-55 -28 5 -110 c10 -199 40 -297 177 -574 164 -332 186 -416 177 -681 -6 -181 -20 -248 -80 -405 -19 -49 -38 -99 -42 -110 -16 -42 199 183 257 269 168 250 242 496 242 806 0 342 -79 586 -310 953 -43 70 -81 127 -84 127 -3 0 -27 -25 -54 -56z"/>
<path d="M8736 4452 c-11 -26 -55 -130 -99 -232 -154 -360 -177 -447 -177 -671 0 -153 20 -281 65 -415 45 -136 148 -333 228 -440 77 -102 196 -225 183 -189 -54 151 -70 384 -37 543 20 95 59 208 88 257 14 23 9 29 106 -114 177 -261 345 -755 389 -1144 l12 -107 36 -10 c56 -16 62 -13 123 47 110 109 211 282 257 443 16 55 23 112 27 215 4 126 2 150 -21 240 -42 166 -134 325 -274 476 -29 32 -141 136 -248 230 -223 197 -271 254 -303 360 -38 128 -74 211 -129 299 -53 84 -139 195 -184 237 l-23 22 -19 -47z"/>
</g>
</svg>