<?xml version="1.0" standalone="no"?>
<!DOCTYPE svg PUBLIC "-//W3C//DTD SVG 20010904//EN"
 "http://www.w3.org/TR/2001/REC-SVG-20010904/DTD/svg10.dtd">
<svg version="1.0" xmlns="http://www.w3.org/2000/svg"
 width="1200.000000pt" height="885.000000pt" viewBox="0 0 1200.000000 885.000000"
 preserveAspectRatio="xMidYMid meet">

<g transform="translate(0.000000,885.000000) scale(0.100000,-0.100000)"
fill="#000000" stroke="none">
<path d="M6451 8440 c-136 -13 -329 -47 -456 -80 -115 -30 -518 -164 -665
-221 -240 -93 -579 -293 -780 -459 l-90 -75 1208 -3 1209 -2 20 -23 c48 -53
447 -613 447 -627 0 -8 -27 -196 -60 -417 l-59 -403 -407 0 c-347 0 -408 2
-408 14 0 8 20 152 45 320 25 169 45 313 45 321 0 13 -115 15 -952 13 l-953
-3 -146 -985 c-80 -542 -149 -1006 -153 -1032 l-7 -48 315 0 316 0 5 23 c4 21
105 701 105 712 0 3 -57 5 -126 5 l-125 0 6 43 c3 23 25 170 48 327 l43 285
553 3 553 2 -6 -27 c-3 -16 -49 -320 -101 -678 -52 -357 -97 -660 -100 -672
l-5 -23 210 0 c209 0 210 0 215 23 3 12 25 162 50 332 25 171 48 325 51 343
l6 32 409 0 c397 0 409 -1 409 -19 0 -11 -29 -217 -65 -457 l-65 -438 -32 -32
c-18 -17 -165 -156 -326 -308 l-293 -276 -342 0 -343 0 -42 -287 c-24 -159
-42 -294 -42 -300 0 -10 170 -13 815 -13 448 0 815 2 815 5 0 3 92 629 205
1391 113 763 205 1393 205 1400 0 12 90 14 550 14 434 0 550 -3 550 -12 -1 -7
-22 -157 -48 -333 l-48 -320 -127 -3 c-122 -2 -127 -3 -132 -25 -3 -12 -79
-528 -170 -1147 -91 -619 -168 -1136 -172 -1149 -5 -13 -147 -158 -318 -322
l-310 -299 -462 0 -463 0 -71 -42 c-267 -161 -405 -428 -463 -898 -22 -180
-36 -385 -36 -538 l0 -134 28 6 c15 3 134 24 265 46 189 32 263 40 361 40 143
0 259 18 380 59 150 50 212 98 432 332 95 101 291 244 419 304 118 56 246 146
433 303 117 98 232 225 396 436 53 68 103 127 112 130 60 23 101 -8 153 -114
54 -110 243 -331 295 -344 23 -6 52 7 172 74 78 44 179 102 224 129 81 50 179
81 253 81 62 0 131 50 344 251 263 249 725 716 865 876 295 336 455 578 521
788 34 108 76 363 83 505 8 148 -26 487 -62 620 -58 220 -203 491 -409 765
-199 265 -464 451 -870 610 -243 96 -439 134 -735 144 -194 6 -196 6 -260 38
-74 37 -108 75 -240 273 -46 69 -111 159 -145 200 -196 235 -591 552 -850 683
-252 126 -611 227 -965 272 -149 19 -507 27 -639 15z m3879 -2791 c0 -6 -34
-72 -75 -147 -155 -285 -247 -514 -306 -762 -58 -247 -81 -304 -149 -372 -46
-45 -69 -60 -116 -74 -112 -32 -224 10 -291 109 -44 66 -56 131 -43 231 50
362 330 682 855 975 89 50 125 61 125 40z"/>
<path d="M3620 6585 c-308 -62 -672 -185 -930 -314 -245 -123 -407 -242 -534
-393 -33 -38 -70 -71 -88 -77 -20 -7 -151 -11 -365 -11 -211 0 -341 -4 -354
-10 -31 -17 -23 -56 20 -99 71 -71 236 -171 381 -231 41 -17 78 -36 82 -43 16
-25 7 -98 -22 -170 -66 -166 -94 -364 -94 -677 0 -189 3 -248 17 -303 37 -148
20 -186 -109 -240 -49 -20 -118 -54 -153 -74 -115 -68 -287 -258 -357 -395
-38 -74 -53 -148 -64 -317 -14 -191 -32 -287 -70 -367 -16 -33 -102 -166 -190
-294 -158 -230 -161 -237 -196 -350 -54 -179 -73 -227 -126 -335 -61 -121 -67
-167 -43 -302 25 -138 62 -240 147 -405 112 -216 443 -743 474 -755 22 -8 153
76 219 142 33 33 90 103 125 155 59 86 78 104 204 200 120 91 145 115 187 179
56 86 120 242 149 363 20 87 63 509 79 783 18 309 76 432 240 512 l54 27 86
-18 c129 -26 251 -69 401 -142 165 -80 237 -108 360 -139 179 -44 240 -50 535
-49 432 1 682 36 975 134 173 58 350 133 350 147 0 5 -73 102 -161 217 l-161
209 56 381 c31 210 56 387 56 394 0 9 -94 12 -438 12 l-437 0 -259 311 -259
311 147 1001 c82 551 150 1012 153 1025 6 25 5 26 -87 7z"/>
</g>
</svg>
