<?xml version="1.0" standalone="no"?>
<svg version="1.0" xmlns="http://www.w3.org/2000/svg"
 width="800.000000pt" height="800.000000pt" viewBox="0 0 800.000000 800.000000"
 preserveAspectRatio="xMidYMid meet">

<g transform="translate(0.000000,800.000000) scale(0.100000,-0.100000)"
fill="#FFFFFF" stroke="none">
<path d="M3835 7494 c-899 -55 -1685 -404 -2305 -1024 -398 -398 -673 -845
-850 -1380 -350 -1057 -172 -2218 478 -3125 216 -301 506 -591 807 -807 814
-583 1834 -788 2815 -567 165 38 444 129 605 198 403 174 770 425 1090 746
849 850 1200 2067 934 3245 -38 165 -129 444 -198 605 -327 758 -932 1392
-1676 1755 -368 180 -731 286 -1145 334 -128 15 -448 26 -555 20z m1335 -1945
c294 -396 535 -725 535 -731 0 -7 -62 -59 -138 -117 -136 -103 -138 -104 -156
-85 -11 10 -252 332 -536 714 -285 382 -522 700 -527 707 -6 8 35 45 134 122
79 60 145 110 148 110 3 0 246 -324 540 -720z m-492 -439 c380 -316 691 -578
691 -581 1 -3 -51 -67 -115 -142 l-116 -137 -47 39 c-25 21 -338 282 -696 580
-357 298 -650 546 -650 550 0 16 220 271 231 268 6 -1 322 -261 702 -577z
m-423 -555 c446 -208 812 -379 813 -381 2 -1 -30 -76 -71 -166 -49 -106 -80
-162 -89 -160 -19 5 -1622 752 -1629 760 -10 11 142 334 155 329 6 -3 376
-175 821 -382z m-241 -645 c489 -94 891 -172 894 -174 4 -5 -18 -319 -24 -325
-2 -2 -420 57 -929 130 -907 131 -925 134 -925 156 0 21 44 306 56 366 4 20
10 26 22 23 10 -3 417 -82 906 -176z m-1314 -765 l0 -545 1230 0 1230 0 0 545
0 545 210 0 210 0 0 -755 0 -755 -1647 2 -1648 3 -3 753 -2 752 210 0 210 0 0
-545z m2190 -70 l0 -205 -960 0 -960 0 0 205 0 205 960 0 960 0 0 -205z"/>
</g>
</svg>
